 http://www.imdb.com/title/tt1273811/

User Rating:2.8/10 - 59 votes

Horror,Mystery,Thriller

Director:Will Gordh

Cast:Daniel Vincent Gordh/Kelly Huddleston/Christopher Kadish/Rachel Owens, and others.

Plot:
Synopsis: Following the unexpected suicide of her mother, Angela finds comfort in her new friendship with Brian. One day she receives a terrifying package containing a voyeuristic tape. The tape chronicles her mother’sfinal days and reveals that someone had been following…watching…stalking her. As the death toll around town rises, it becomes clear that this is no mere coincidence. The deaths were thought to be suicides, but the truth is far worse....

Info:

Covers included.

General
Complete name                    : Night Watcher-AC3-5,1-DVDRip[Eng]2008.avi
Format                           : AVI
Format/Info                      : Audio Video Interleave
File size                        : 1.13 GiB
Duration                         : 1h 32mn
Overall bit rate                 : 1 744 Kbps
Writing application              : VirtualDubMod 1.5.4.1 (build 2178/release)
Writing library                  : VirtualDubMod build 2178/release

Video
ID                               : 0
Format                           : MPEG-4 Visual
Format profile                   : Simple@L3
Format settings, BVOP            : No
Format settings, QPel            : No
Format settings, GMC             : No warppoints
Format settings, Matrix          : Default (H.263)
Codec ID                         : XVID
Codec ID/Hint                    : XviD
Duration                         : 1h 32mn
Bit rate                         : 1 287 Kbps
Width                            : 624 pixels
Height                           : 352 pixels
Display aspect ratio             : 16:9
Frame rate                       : 23.976 fps
Resolution                       : 24 bits
Colorimetry                      : 4:2:0
Scan type                        : Progressive
Bits/(Pixel*Frame)               : 0.244
Stream size                      : 852 MiB (74%)
Writing library                  : XviD 1.1.2 (UTC 2006-11-01)

Audio
ID                               : 1
Format                           : AC-3
Format/Info                      : Audio Coding 3
Codec ID                         : 2000
Duration                         : 1h 32mn
Bit rate mode                    : Constant
Bit rate                         : 448 Kbps
Channel(s)                       : 6 channels
Channel positions                : Front: L C R, Surround: L R, LFE
Sampling rate                    : 48.0 KHz
Stream size                      : 297 MiB (26%)
Alignment                        : Split accross interleaves
Interleave, duration             : 42 ms (1.00 video frame)
Interleave, preload duration     : 500 ms

Enjoy...